<?xml version="1.0" encoding="iso-8859-1"?>
<!-- Generator: Adobe Illustrator 21.0.0, SVG Export Plug-In . SVG Version: 6.00 Build 0)  -->
<svg version="1.1" id="Layer_1" xmlns="http://www.w3.org/2000/svg" xmlns:xlink="http://www.w3.org/1999/xlink" x="0px" y="0px"
	 viewBox="0 0 24 24" enable-background="new 0 0 24 24" xml:space="preserve">
<path fill="#303C42" d="M22,21c-0.0809326,0-0.1528931,0.0280151-0.2283325,0.0462646
	c-0.973999-1.0714722-0.9384155-2.7130127-0.8825073-4.7821045c0.0775146-2.8658447,0.1645508-6.4058838-2.7069092-9.7393799
	L19.5,5.2070313l0.6464844,0.6464844C20.2412109,5.9482422,20.3691406,6,20.5,6
	c0.0380859,0,0.0766602-0.0043945,0.1147461-0.0131836c0.1689453-0.0400391,0.3046875-0.1640625,0.359375-0.3286133l1-3
	c0.0600586-0.1796875,0.0131836-0.3779297-0.1206055-0.5117188c-0.1337891-0.1333008-0.3325195-0.1821289-0.5117188-0.1206055l-3,1
	c-0.1645508,0.0546875-0.2885742,0.1904297-0.3286133,0.359375c-0.0395508,0.168457,0.0107422,0.3457031,0.1333008,0.4682617
	L18.7929688,4.5l-1.3163452,1.3163452c-3.319519-2.8704834-6.8719482-2.7846069-9.7407837-2.7055054
	c-2.0700073,0.055481-3.7111206,0.0914917-4.7821045-0.8825073C2.9719849,2.1528931,3,2.0809326,3,2c0-0.5512695-0.4487305-1-1-1
	S1,1.4487305,1,2s0.4487305,1,1,1c0.0583496,0,0.1089478-0.0236816,0.1646118-0.0333252l5.7352905,12.4263916L5.2929688,18
	H3.6538086c-0.1259766,0-0.2475586,0.0478516-0.340332,0.1337891l-2.1538086,2
	c-0.1503906,0.1396484-0.2001953,0.3574219-0.125,0.5488281S1.2944336,21,1.5,21H3v1.5
	c0,0.2055664,0.1259766,0.3901367,0.3173828,0.465332C3.3764648,22.9887695,3.4384766,23,3.5,23
	c0.1362305,0,0.2700195-0.0556641,0.3662109-0.159668l2-2.1538086C5.9521484,20.59375,6,20.472168,6,20.3461914v-1.6391602
	l2.6069336-2.6069336l12.4263916,5.7352905C21.0236816,21.8910522,21,21.9416504,21,22c0,0.5512695,0.4487305,1,1,1s1-0.4487305,1-1
	S22.5512695,21,22,21z M3.7925415,4.1071167C5.1343384,4.878418,6.5671997,5.185791,8.0605469,5.4946289
	c2.1903076,0.4532471,4.4517212,0.9412842,6.7147827,3.0230103l-6.1217651,6.1217651L3.7925415,4.1071167z M15.4823608,9.2246704
	c2.0817261,2.2630615,2.5697632,4.5244751,3.0230103,6.7147827c0.3088379,1.4933472,0.6162109,2.9262085,1.3875122,4.2680054
	L9.3605957,15.3464355L15.4823608,9.2246704z"/>
<g>
</g>
<g>
</g>
<g>
</g>
<g>
</g>
<g>
</g>
<g>
</g>
<g>
</g>
<g>
</g>
<g>
</g>
<g>
</g>
<g>
</g>
<g>
</g>
<g>
</g>
<g>
</g>
<g>
</g>
</svg>
